<mxfile host="app.diagrams.net" agent="Mozilla/5.0 (Windows NT 10.0; Win64; x64) AppleWebKit/537.36 (KHTML, like Gecko) Chrome/127.0.0.0 Safari/537.36" version="24.7.6">
  <diagram name="Page-1" id="Wpgi2vCul-hgQJS9_ody">
    <mxGraphModel dx="1418" dy="867" grid="1" gridSize="10" guides="1" tooltips="1" connect="1" arrows="1" fold="1" page="1" pageScale="1" pageWidth="827" pageHeight="1169" math="0" shadow="0">
      <root>
        <mxCell id="0" />
        <mxCell id="1" parent="0" />
        <mxCell id="krserkGYWNreEZ6Du8Vo-14" value="" style="edgeStyle=orthogonalEdgeStyle;rounded=0;orthogonalLoop=1;jettySize=auto;html=1;" edge="1" parent="1" source="krserkGYWNreEZ6Du8Vo-1" target="krserkGYWNreEZ6Du8Vo-3">
          <mxGeometry relative="1" as="geometry" />
        </mxCell>
        <mxCell id="krserkGYWNreEZ6Du8Vo-1" value="start" style="ellipse;whiteSpace=wrap;html=1;aspect=fixed;" vertex="1" parent="1">
          <mxGeometry x="366" y="94" width="80" height="80" as="geometry" />
        </mxCell>
        <mxCell id="krserkGYWNreEZ6Du8Vo-16" value="" style="edgeStyle=orthogonalEdgeStyle;rounded=0;orthogonalLoop=1;jettySize=auto;html=1;" edge="1" parent="1" source="krserkGYWNreEZ6Du8Vo-2" target="krserkGYWNreEZ6Du8Vo-4">
          <mxGeometry relative="1" as="geometry" />
        </mxCell>
        <mxCell id="krserkGYWNreEZ6Du8Vo-2" value="&lt;br&gt;&lt;span style=&quot;color: rgb(0, 0, 0); font-family: Helvetica, &amp;quot;VP Default&amp;quot;; font-size: 12px; font-style: normal; font-variant-ligatures: normal; font-variant-caps: normal; font-weight: 400; letter-spacing: normal; orphans: 2; text-align: center; text-indent: 0px; text-transform: none; widows: 2; word-spacing: 0px; -webkit-text-stroke-width: 0px; white-space: normal; background-color: rgb(248, 249, 250); text-decoration-thickness: initial; text-decoration-style: initial; text-decoration-color: initial; display: inline !important; float: none;&quot;&gt;make withdrawal request&lt;/span&gt;&lt;div&gt;&lt;br&gt;&lt;/div&gt;" style="rounded=0;whiteSpace=wrap;html=1;" vertex="1" parent="1">
          <mxGeometry x="346" y="294" width="120" height="60" as="geometry" />
        </mxCell>
        <mxCell id="krserkGYWNreEZ6Du8Vo-15" value="" style="edgeStyle=orthogonalEdgeStyle;rounded=0;orthogonalLoop=1;jettySize=auto;html=1;" edge="1" parent="1" source="krserkGYWNreEZ6Du8Vo-3" target="krserkGYWNreEZ6Du8Vo-2">
          <mxGeometry relative="1" as="geometry" />
        </mxCell>
        <mxCell id="krserkGYWNreEZ6Du8Vo-3" value="insert card" style="shape=parallelogram;perimeter=parallelogramPerimeter;whiteSpace=wrap;html=1;fixedSize=1;" vertex="1" parent="1">
          <mxGeometry x="346" y="204" width="120" height="60" as="geometry" />
        </mxCell>
        <mxCell id="krserkGYWNreEZ6Du8Vo-11" style="edgeStyle=orthogonalEdgeStyle;rounded=0;orthogonalLoop=1;jettySize=auto;html=1;entryX=0.5;entryY=0;entryDx=0;entryDy=0;" edge="1" parent="1" source="krserkGYWNreEZ6Du8Vo-4" target="krserkGYWNreEZ6Du8Vo-10">
          <mxGeometry relative="1" as="geometry" />
        </mxCell>
        <mxCell id="krserkGYWNreEZ6Du8Vo-22" value="NO" style="edgeLabel;html=1;align=center;verticalAlign=middle;resizable=0;points=[];" vertex="1" connectable="0" parent="krserkGYWNreEZ6Du8Vo-11">
          <mxGeometry x="-0.6353" y="2" relative="1" as="geometry">
            <mxPoint as="offset" />
          </mxGeometry>
        </mxCell>
        <mxCell id="krserkGYWNreEZ6Du8Vo-17" value="" style="edgeStyle=orthogonalEdgeStyle;rounded=0;orthogonalLoop=1;jettySize=auto;html=1;" edge="1" parent="1" source="krserkGYWNreEZ6Du8Vo-4" target="krserkGYWNreEZ6Du8Vo-5">
          <mxGeometry relative="1" as="geometry" />
        </mxCell>
        <mxCell id="krserkGYWNreEZ6Du8Vo-25" value="YES" style="edgeLabel;html=1;align=center;verticalAlign=middle;resizable=0;points=[];" vertex="1" connectable="0" parent="krserkGYWNreEZ6Du8Vo-17">
          <mxGeometry x="-0.64" y="-2" relative="1" as="geometry">
            <mxPoint as="offset" />
          </mxGeometry>
        </mxCell>
        <mxCell id="krserkGYWNreEZ6Du8Vo-4" value="valid?" style="rhombus;whiteSpace=wrap;html=1;" vertex="1" parent="1">
          <mxGeometry x="366" y="384" width="80" height="80" as="geometry" />
        </mxCell>
        <mxCell id="krserkGYWNreEZ6Du8Vo-18" value="" style="edgeStyle=orthogonalEdgeStyle;rounded=0;orthogonalLoop=1;jettySize=auto;html=1;" edge="1" parent="1" source="krserkGYWNreEZ6Du8Vo-5" target="krserkGYWNreEZ6Du8Vo-6">
          <mxGeometry relative="1" as="geometry" />
        </mxCell>
        <mxCell id="krserkGYWNreEZ6Du8Vo-5" value="check acount balance" style="rounded=0;whiteSpace=wrap;html=1;" vertex="1" parent="1">
          <mxGeometry x="346" y="498" width="120" height="60" as="geometry" />
        </mxCell>
        <mxCell id="krserkGYWNreEZ6Du8Vo-12" style="edgeStyle=orthogonalEdgeStyle;rounded=0;orthogonalLoop=1;jettySize=auto;html=1;" edge="1" parent="1" source="krserkGYWNreEZ6Du8Vo-6">
          <mxGeometry relative="1" as="geometry">
            <mxPoint x="546" y="634" as="targetPoint" />
          </mxGeometry>
        </mxCell>
        <mxCell id="krserkGYWNreEZ6Du8Vo-23" value="NO" style="edgeLabel;html=1;align=center;verticalAlign=middle;resizable=0;points=[];" vertex="1" connectable="0" parent="krserkGYWNreEZ6Du8Vo-12">
          <mxGeometry x="-0.3035" y="-2" relative="1" as="geometry">
            <mxPoint as="offset" />
          </mxGeometry>
        </mxCell>
        <mxCell id="krserkGYWNreEZ6Du8Vo-19" value="" style="edgeStyle=orthogonalEdgeStyle;rounded=0;orthogonalLoop=1;jettySize=auto;html=1;" edge="1" parent="1" source="krserkGYWNreEZ6Du8Vo-6" target="krserkGYWNreEZ6Du8Vo-8">
          <mxGeometry relative="1" as="geometry">
            <Array as="points">
              <mxPoint x="406" y="694" />
              <mxPoint x="406" y="694" />
            </Array>
          </mxGeometry>
        </mxCell>
        <mxCell id="krserkGYWNreEZ6Du8Vo-24" value="YES" style="edgeLabel;html=1;align=center;verticalAlign=middle;resizable=0;points=[];" vertex="1" connectable="0" parent="krserkGYWNreEZ6Du8Vo-19">
          <mxGeometry x="-0.25" y="-2" relative="1" as="geometry">
            <mxPoint as="offset" />
          </mxGeometry>
        </mxCell>
        <mxCell id="krserkGYWNreEZ6Du8Vo-6" value="&lt;font style=&quot;font-size: 11px;&quot;&gt;balance is enough?&lt;/font&gt;" style="rhombus;whiteSpace=wrap;html=1;" vertex="1" parent="1">
          <mxGeometry x="366" y="595" width="80" height="80" as="geometry" />
        </mxCell>
        <mxCell id="krserkGYWNreEZ6Du8Vo-20" value="" style="edgeStyle=orthogonalEdgeStyle;rounded=0;orthogonalLoop=1;jettySize=auto;html=1;" edge="1" parent="1" source="krserkGYWNreEZ6Du8Vo-8" target="krserkGYWNreEZ6Du8Vo-9">
          <mxGeometry relative="1" as="geometry" />
        </mxCell>
        <mxCell id="krserkGYWNreEZ6Du8Vo-8" value="&lt;font style=&quot;font-size: 10px;&quot;&gt;give cash to customer&lt;/font&gt;" style="shape=parallelogram;perimeter=parallelogramPerimeter;whiteSpace=wrap;html=1;fixedSize=1;" vertex="1" parent="1">
          <mxGeometry x="346" y="720" width="120" height="60" as="geometry" />
        </mxCell>
        <mxCell id="krserkGYWNreEZ6Du8Vo-21" value="" style="edgeStyle=orthogonalEdgeStyle;rounded=0;orthogonalLoop=1;jettySize=auto;html=1;" edge="1" parent="1" source="krserkGYWNreEZ6Du8Vo-9" target="krserkGYWNreEZ6Du8Vo-13">
          <mxGeometry relative="1" as="geometry" />
        </mxCell>
        <mxCell id="krserkGYWNreEZ6Du8Vo-9" value="&lt;span style=&quot;font-family: Helvetica, &amp;quot;VP Default&amp;quot;; background-color: rgb(248, 249, 250);&quot;&gt;record transaction&lt;/span&gt;" style="rounded=0;whiteSpace=wrap;html=1;" vertex="1" parent="1">
          <mxGeometry x="346" y="821" width="120" height="60" as="geometry" />
        </mxCell>
        <mxCell id="krserkGYWNreEZ6Du8Vo-26" style="edgeStyle=orthogonalEdgeStyle;rounded=0;orthogonalLoop=1;jettySize=auto;html=1;entryX=1;entryY=0.5;entryDx=0;entryDy=0;" edge="1" parent="1" source="krserkGYWNreEZ6Du8Vo-10" target="krserkGYWNreEZ6Du8Vo-13">
          <mxGeometry relative="1" as="geometry">
            <mxPoint x="576" y="964" as="targetPoint" />
            <Array as="points">
              <mxPoint x="606" y="964" />
            </Array>
          </mxGeometry>
        </mxCell>
        <mxCell id="krserkGYWNreEZ6Du8Vo-10" value="&lt;br&gt;&lt;span style=&quot;color: rgb(0, 0, 0); font-family: Helvetica, &amp;quot;VP Default&amp;quot;; font-size: 12px; font-style: normal; font-variant-ligatures: normal; font-variant-caps: normal; font-weight: 400; letter-spacing: normal; orphans: 2; text-align: center; text-indent: 0px; text-transform: none; widows: 2; word-spacing: 0px; -webkit-text-stroke-width: 0px; white-space: normal; background-color: rgb(248, 249, 250); text-decoration-thickness: initial; text-decoration-style: initial; text-decoration-color: initial; display: inline !important; float: none;&quot;&gt;reject request&lt;/span&gt;&lt;div&gt;&lt;br/&gt;&lt;/div&gt;" style="rounded=0;whiteSpace=wrap;html=1;" vertex="1" parent="1">
          <mxGeometry x="546" y="604" width="120" height="60" as="geometry" />
        </mxCell>
        <mxCell id="krserkGYWNreEZ6Du8Vo-13" value="end" style="ellipse;whiteSpace=wrap;html=1;aspect=fixed;" vertex="1" parent="1">
          <mxGeometry x="366" y="924" width="80" height="80" as="geometry" />
        </mxCell>
      </root>
    </mxGraphModel>
  </diagram>
</mxfile>
